<?xml version="1.0" standalone="no"?>
<!DOCTYPE svg PUBLIC "-//W3C//DTD SVG 20010904//EN"
 "http://www.w3.org/TR/2001/REC-SVG-20010904/DTD/svg10.dtd">
<svg version="1.0" xmlns="http://www.w3.org/2000/svg"
 width="466.000000pt" height="466.000000pt" viewBox="0 0 466.000000 466.000000"
 preserveAspectRatio="xMidYMid meet">
<metadata>
Created by potrace 1.11, written by Peter Selinger 2001-2013
</metadata>
<g transform="translate(0.000000,466.000000) scale(0.100000,-0.100000)"
fill="#000000" stroke="none">
<path d="M4640 2330 c0 -1547 3 -2330 10 -2330 7 0 10 783 10 2330 0 1547 -3
2330 -10 2330 -7 0 -10 -783 -10 -2330z"/>
<path d="M2220 3688 c-119 -16 -205 -29 -245 -38 -70 -15 -139 -32 -165 -40
-14 -4 -45 -13 -70 -20 -252 -70 -483 -202 -635 -362 -72 -76 -84 -90 -124
-146 -25 -36 -26 -25 9 -162 5 -19 11 -47 14 -62 3 -14 9 -33 12 -42 5 -14 -7
-16 -105 -16 -158 0 -230 -30 -278 -117 -15 -26 -17 -125 -4 -151 5 -9 19 -38
31 -64 40 -84 151 -178 264 -224 38 -15 52 -26 54 -44 6 -39 51 -97 90 -116
21 -10 58 -18 84 -19 55 0 60 -5 78 -65 26 -92 34 -115 42 -124 4 -6 8 -17 8
-26 0 -30 106 -146 159 -174 153 -81 279 -132 391 -156 111 -25 157 -32 270
-45 266 -31 572 -10 835 56 190 48 359 116 538 218 87 49 113 78 103 116 -4
14 -11 67 -16 118 -5 51 -14 143 -21 205 l-11 113 25 24 c24 25 41 72 53 153
7 48 2 43 103 115 43 29 83 67 94 87 25 44 33 146 15 180 -24 45 -130 80 -241
80 -52 0 -67 4 -92 26 -37 32 -80 55 -89 47 -8 -8 25 -32 44 -33 8 0 26 -14
39 -30 22 -28 28 -30 88 -30 80 0 169 -25 200 -56 25 -25 29 -54 12 -102 -24
-68 -154 -78 -177 -14 -6 15 -18 36 -27 47 -16 19 -16 19 -10 -10 15 -72 27
-176 21 -191 -16 -42 -58 37 -57 110 0 24 -8 49 -20 64 -11 15 -19 40 -19 64
0 22 -4 37 -9 33 -13 -7 -51 48 -51 75 0 11 -4 19 -8 16 -5 -3 -19 4 -32 16
-17 16 -24 18 -30 8 -5 -9 -10 -6 -15 11 -3 13 -10 33 -15 44 -4 11 -17 45
-28 75 -40 109 -111 287 -138 345 -57 122 -172 263 -190 233 -15 -22 -34 -82
-34 -104 0 -35 -23 -47 -67 -35 -120 31 -232 38 -327 20 -60 -11 -86 -3 -86
27 0 8 -9 34 -21 59 l-21 45 -67 -1 c-36 -1 -95 -6 -131 -11z m245 -714 c8
-20 15 -50 15 -67 0 -29 17 -96 61 -237 15 -49 19 -87 17 -155 l-3 -90 -53 -5
c-41 -4 -56 -2 -67 10 -8 9 -15 20 -15 23 0 4 -17 36 -38 70 -21 34 -46 83
-56 107 -10 25 -42 92 -72 149 -30 58 -54 110 -54 116 0 11 24 25 140 80 41
19 82 35 92 35 11 0 24 -14 33 -36z m912 -46 c-3 -7 -5 -2 -5 12 0 14 2 19 5
13 2 -7 2 -19 0 -25z m-187 -2 c89 -14 95 -24 46 -86 -45 -59 -69 -130 -71
-210 -2 -93 -1 -90 -43 -90 -41 0 -52 15 -71 100 -14 59 -14 256 -1 281 12 22
32 23 140 5z m237 -104 c46 -111 62 -164 84 -277 20 -104 25 -208 9 -170 -5
11 -9 38 -10 60 -2 57 -23 152 -38 167 -6 6 -12 17 -12 24 0 6 -7 36 -16 65
-8 30 -20 72 -26 94 -6 22 -17 57 -24 78 -26 69 1 37 33 -41z m-2150 7 c53
-37 91 -84 109 -135 18 -51 18 -241 -1 -317 -20 -86 -71 -183 -122 -234 -43
-44 -46 -45 -95 -41 -54 6 -68 18 -68 59 0 33 20 52 40 39 31 -20 41 -11 38
31 -4 60 18 72 67 35 45 -35 58 -26 20 14 -35 37 -28 60 20 60 40 0 44 9 15
35 -29 26 -25 61 10 87 37 27 37 38 5 68 -35 33 -34 82 1 99 33 15 26 35 -15
39 -44 5 -59 37 -41 92 7 22 11 42 8 45 -3 3 -24 -2 -48 -10 -49 -17 -136 -20
-145 -5 -9 15 12 38 54 61 46 24 90 17 148 -22z m795 -89 c11 -25 34 -74 50
-110 16 -36 39 -81 51 -100 28 -45 78 -162 72 -168 -5 -6 -53 9 -215 68 -226
82 -274 93 -400 94 -63 1 -131 -1 -150 -4 l-35 -5 -6 80 c-4 47 -15 100 -28
129 -25 57 -22 62 49 71 25 4 58 11 74 16 43 14 473 12 482 -2 4 -8 10 -5 18
7 10 18 11 17 14 -6 2 -14 13 -45 24 -70z m1323 -51 c16 -47 26 -92 23 -101
-9 -22 -86 -60 -94 -47 -8 14 27 252 36 242 4 -5 19 -47 35 -94z m-2333 67
c32 -9 77 -25 102 -37 40 -19 47 -26 60 -72 20 -74 29 -163 18 -184 -27 -50
-246 -66 -337 -25 -61 28 -95 59 -146 134 -21 31 -50 65 -64 76 -32 26 -32 46
3 70 85 59 229 74 364 38z m2022 -319 c-49 -16 -102 -32 -118 -36 -21 -5 -30
-13 -31 -29 -1 -12 -9 -30 -18 -40 -9 -10 -17 -23 -17 -29 0 -17 -56 -26 -79
-13 -24 12 -36 49 -26 79 3 12 26 29 53 41 51 23 289 70 311 62 7 -3 -26 -18
-75 -35z m-319 -70 c-16 -22 -109 -45 -185 -45 l-35 0 35 15 c49 22 184 61
193 56 4 -2 0 -14 -8 -26z m235 -16 c19 -36 -11 -68 -51 -56 -23 8 -24 33 -2
57 21 23 40 23 53 -1z m270 -311 c14 -27 -4 -84 -36 -117 -49 -49 -240 -130
-394 -166 -181 -44 -436 -65 -557 -47 -94 14 -123 30 -123 68 1 57 14 62 161
62 160 0 296 16 432 50 74 19 122 32 147 40 14 4 45 13 70 20 76 21 164 50
182 60 10 6 23 10 30 10 7 0 24 9 38 20 32 25 37 25 50 0z"/>
<path d="M2386 2814 c-9 -8 -18 -31 -22 -50 -12 -66 2 -130 49 -230 l47 -96
32 7 c18 4 36 10 40 14 10 9 -26 202 -48 261 -19 50 -50 96 -70 104 -7 3 -20
-2 -28 -10z"/>
<path d="M3118 2823 c-31 -36 -41 -68 -40 -131 2 -77 20 -134 42 -130 12 3 16
24 21 98 4 52 8 106 9 120 4 40 1 60 -8 60 -5 0 -16 -8 -24 -17z"/>
<path d="M2820 2310 c0 -5 5 -10 10 -10 6 0 10 5 10 10 0 6 -4 10 -10 10 -5 0
-10 -4 -10 -10z"/>
</g>
</svg>
