<?xml version="1.0" standalone="no"?>
<!DOCTYPE svg PUBLIC "-//W3C//DTD SVG 20010904//EN"
 "http://www.w3.org/TR/2001/REC-SVG-20010904/DTD/svg10.dtd">
<svg version="1.0" xmlns="http://www.w3.org/2000/svg"
 width="480.000000pt" height="480.000000pt" viewBox="0 0 480.000000 480.000000"
 preserveAspectRatio="xMidYMid meet">
<metadata>
Created by potrace 1.11, written by Peter Selinger 2001-2013
</metadata>
<g transform="translate(0.000000,480.000000) scale(0.100000,-0.100000)"
fill="#000000" stroke="none">
<path d="M2315 3779 c-278 -39 -341 -52 -555 -117 -283 -86 -553 -266 -714
-476 -55 -73 -57 -76 -47 -113 22 -83 51 -204 51 -212 0 -5 -55 -11 -122 -13
-110 -3 -129 -6 -179 -31 -115 -56 -145 -165 -81 -298 17 -35 44 -80 61 -100
39 -46 164 -133 221 -152 24 -8 48 -21 51 -28 4 -8 15 -34 25 -57 29 -71 127
-126 186 -103 35 13 39 7 73 -104 16 -49 32 -94 37 -99 4 -6 8 -20 8 -32 0
-25 120 -153 165 -176 17 -8 56 -29 88 -46 113 -61 334 -129 487 -151 288 -41
479 -41 770 0 165 23 362 75 510 136 155 63 346 167 378 206 14 16 12 38 -18
287 -22 181 -23 225 -5 240 29 24 55 88 61 149 4 32 9 63 13 68 3 6 33 27 66
47 120 76 158 131 159 234 1 59 -1 65 -31 92 -42 38 -89 51 -203 57 -81 4 -99
9 -120 28 -39 35 -78 57 -92 52 -7 -3 3 -12 23 -21 20 -8 45 -27 55 -41 17
-22 27 -25 105 -30 86 -4 164 -29 202 -62 24 -23 23 -93 -3 -126 -27 -34 -79
-50 -122 -39 -26 6 -39 19 -60 58 -32 57 -33 51 -13 -70 12 -74 12 -92 1 -107
-10 -15 -15 -17 -23 -7 -17 21 -45 116 -41 140 1 13 -5 34 -15 48 -10 14 -17
43 -17 70 0 25 -4 40 -8 33 -10 -15 -57 51 -55 78 1 11 -3 16 -11 13 -8 -3
-22 6 -33 20 -13 16 -23 22 -30 15 -7 -7 -16 6 -27 38 -160 442 -215 554 -335
682 -40 43 -52 33 -75 -58 -8 -35 -18 -66 -21 -69 -3 -3 -34 1 -68 8 -40 10
-122 15 -235 15 l-174 0 -18 54 c-11 29 -24 59 -31 67 -13 16 -113 17 -214 3z
m240 -717 c14 -10 35 -73 35 -105 0 -14 7 -52 16 -84 9 -32 20 -74 24 -93 5
-19 15 -53 24 -75 10 -27 15 -76 16 -147 l0 -108 -44 0 c-24 0 -51 -3 -59 -6
-11 -4 -29 18 -63 78 -26 46 -54 99 -63 118 -9 19 -46 96 -83 171 -38 74 -68
139 -68 143 0 4 46 29 103 55 138 65 143 67 162 53z m972 -79 c-3 -10 -5 -4
-5 12 0 17 2 24 5 18 2 -7 2 -21 0 -30z m-184 -2 c32 -4 62 -13 67 -20 11 -18
1 -49 -21 -64 -10 -7 -30 -37 -45 -67 -22 -44 -28 -72 -32 -149 -3 -54 -10
-99 -16 -103 -6 -4 -23 -8 -37 -8 -53 0 -76 74 -80 260 -4 156 3 176 64 165
23 -4 68 -10 100 -14z m257 -146 c38 -96 67 -215 90 -368 9 -64 3 -107 -11
-71 -4 10 -8 35 -8 54 -1 45 -25 160 -40 188 -6 12 -15 31 -21 42 -5 11 -10
29 -10 39 0 11 -4 23 -10 26 -5 3 -10 24 -10 45 0 21 -4 42 -10 45 -5 3 -10
19 -10 35 0 16 -4 32 -10 35 -5 3 -10 18 -10 33 0 22 5 17 26 -28 15 -30 30
-64 34 -75z m-2272 42 c65 -46 99 -94 117 -162 47 -181 -21 -454 -140 -563
-45 -42 -76 -51 -131 -36 -27 7 -46 48 -38 81 6 23 10 25 47 19 l40 -7 -6 38
c-11 65 24 81 83 38 45 -33 52 -22 10 15 -28 25 -32 34 -24 48 6 9 24 18 40
19 16 0 33 2 37 2 5 1 -1 13 -12 27 -30 38 -26 70 11 104 l32 30 -23 21 c-21
19 -41 58 -41 79 0 5 12 20 26 34 29 27 25 46 -10 46 -13 0 -29 7 -36 15 -12
15 -10 75 5 109 7 16 5 18 -26 11 -19 -4 -40 -12 -46 -17 -8 -6 -37 -7 -73 -3
-77 9 -81 30 -12 69 59 33 107 29 170 -17z m776 0 c5 -9 7 -9 12 1 11 23 24
12 24 -19 0 -29 70 -193 112 -264 10 -16 25 -46 34 -65 9 -19 27 -59 40 -89
14 -29 23 -55 21 -58 -3 -2 -58 14 -123 37 -409 142 -480 158 -614 140 -116
-15 -110 -17 -110 40 0 64 -18 131 -52 197 l-27 52 31 -6 c22 -4 29 -3 24 5
-4 7 -1 12 6 13 49 2 93 10 101 18 16 16 514 14 521 -2z m1436 -112 c22 -56
40 -133 35 -146 -6 -16 -93 -54 -102 -45 -4 4 -1 46 6 94 7 48 16 109 19 137
l5 50 15 -35 c8 -19 18 -44 22 -55z m-2400 26 c115 -38 122 -49 146 -189 18
-110 12 -122 -74 -147 -84 -25 -181 -25 -250 0 -57 21 -141 79 -157 110 -28
53 -67 105 -97 128 l-33 26 29 29 c16 18 50 37 84 47 31 9 62 18 67 21 6 2 57
2 115 0 74 -2 124 -9 170 -25z m2165 -287 c19 -8 11 -10 -147 -59 -70 -22 -88
-31 -88 -46 0 -20 15 -26 25 -9 4 7 13 7 26 0 23 -13 25 -55 3 -68 -22 -12
-64 -3 -64 14 0 21 -21 17 -27 -5 -5 -19 -38 -29 -80 -23 -29 4 -47 50 -34 84
14 37 81 64 231 93 151 28 135 26 155 19z m-416 -108 c-10 -21 -24 -27 -98
-40 -100 -19 -121 -20 -121 -6 0 6 8 10 18 10 10 0 22 3 26 7 9 9 143 50 168
52 15 1 16 -3 7 -23z m526 -385 c-1 -65 -28 -94 -140 -149 -221 -109 -475
-162 -772 -162 -123 0 -183 8 -230 32 -27 14 -30 53 -7 86 14 21 22 22 157 22
181 0 306 16 487 62 153 39 376 110 430 137 30 15 60 27 65 26 6 -1 10 -25 10
-54z"/>
<path d="M2480 2851 c-5 -11 -10 -56 -10 -101 0 -76 3 -87 45 -175 25 -52 50
-97 56 -100 5 -4 25 -1 45 5 32 11 35 15 29 39 -4 14 -13 60 -21 101 -25 136
-44 189 -82 233 -20 23 -49 22 -62 -2z"/>
<path d="M3258 2873 c-31 -36 -40 -66 -39 -135 1 -84 18 -138 43 -138 16 0 18
9 18 73 0 41 5 99 12 131 9 48 9 60 -4 72 -13 13 -16 12 -30 -3z"/>
</g>
</svg>
